<?xml version="1.0" encoding="UTF-8"?>
<!DOCTYPE svg PUBLIC "-//W3C//DTD SVG 1.1//EN" "http://www.w3.org/Graphics/SVG/1.1/DTD/svg11.dtd">
<svg xmlns="http://www.w3.org/2000/svg" version="1.1" width="512px" height="512px" style="shape-rendering:geometricPrecision; text-rendering:geometricPrecision; image-rendering:optimizeQuality; fill-rule:evenodd; clip-rule:evenodd" xmlns:xlink="http://www.w3.org/1999/xlink">
<g><path style="opacity:0.946" fill="#2dd4bf" d="M 329.5,41.5 C 343.504,41.3334 357.504,41.5001 371.5,42C 382.525,43.2082 386.025,49.0415 382,59.5C 380.681,61.4875 378.848,62.6541 376.5,63C 371.845,63.4992 367.179,63.6658 362.5,63.5C 362.5,84.5 362.5,105.5 362.5,126.5C 376.544,126.912 390.544,127.745 404.5,129C 415.401,132.901 422.568,140.401 426,151.5C 426.667,220.833 426.667,290.167 426,359.5C 422.568,370.599 415.401,378.099 404.5,382C 390.544,383.255 376.544,384.088 362.5,384.5C 362.5,405.5 362.5,426.5 362.5,447.5C 368.262,447.149 373.928,447.649 379.5,449C 385.062,455.62 384.728,461.953 378.5,468C 360.5,470 342.5,470 324.5,468C 318.272,461.953 317.938,455.62 323.5,449C 329.072,447.649 334.738,447.149 340.5,447.5C 340.5,426.5 340.5,405.5 340.5,384.5C 326.456,384.088 312.456,383.255 298.5,382C 287.599,378.099 280.432,370.599 277,359.5C 276.333,290.167 276.333,220.833 277,151.5C 280.432,140.401 287.599,132.901 298.5,129C 312.456,127.745 326.456,126.912 340.5,126.5C 340.5,105.5 340.5,84.5 340.5,63.5C 335.821,63.6658 331.155,63.4992 326.5,63C 321.464,61.6043 319.131,58.271 319.5,53C 319.848,46.49 323.181,42.6566 329.5,41.5 Z M 305.5,149.5 C 336.502,149.333 367.502,149.5 398.5,150C 400,151.5 401.5,153 403,154.5C 403.667,221.833 403.667,289.167 403,356.5C 401.5,358 400,359.5 398.5,361C 367.167,361.667 335.833,361.667 304.5,361C 303,359.5 301.5,358 300,356.5C 299.333,289.167 299.333,221.833 300,154.5C 301.73,152.598 303.563,150.931 305.5,149.5 Z"/></g>
<g><path style="opacity:0.95" fill="#2dd4bf" d="M 137.5,105.5 C 151.504,105.333 165.504,105.5 179.5,106C 190.525,107.208 194.025,113.042 190,123.5C 188.681,125.487 186.848,126.654 184.5,127C 179.845,127.499 175.179,127.666 170.5,127.5C 170.5,148.5 170.5,169.5 170.5,190.5C 183.155,191.155 195.821,191.655 208.5,192C 221.459,194.958 229.959,202.791 234,215.5C 234.667,249.167 234.667,282.833 234,316.5C 230.141,328.359 222.307,336.193 210.5,340C 197.186,341.055 183.853,341.555 170.5,341.5C 170.5,376.833 170.5,412.167 170.5,447.5C 176.262,447.149 181.928,447.649 187.5,449C 193.062,455.62 192.728,461.953 186.5,468C 168.5,470 150.5,470 132.5,468C 126.272,461.953 125.938,455.62 131.5,449C 137.072,447.649 142.738,447.149 148.5,447.5C 148.5,412.167 148.5,376.833 148.5,341.5C 135.147,341.555 121.814,341.055 108.5,340C 96.6928,336.193 88.8594,328.359 85,316.5C 84.3333,282.833 84.3333,249.167 85,215.5C 89.0407,202.791 97.5407,194.958 110.5,192C 123.179,191.655 135.845,191.155 148.5,190.5C 148.5,169.5 148.5,148.5 148.5,127.5C 143.821,127.666 139.155,127.499 134.5,127C 129.464,125.604 127.131,122.271 127.5,117C 127.848,110.49 131.181,106.657 137.5,105.5 Z M 113.5,213.5 C 144.502,213.333 175.502,213.5 206.5,214C 208,215.5 209.5,217 211,218.5C 211.667,250.167 211.667,281.833 211,313.5C 209.5,315 208,316.5 206.5,318C 175.167,318.667 143.833,318.667 112.5,318C 111,316.5 109.5,315 108,313.5C 107.333,281.833 107.333,250.167 108,218.5C 109.73,216.598 111.563,214.931 113.5,213.5 Z"/></g>
</svg>
